<svg xmlns="http://www.w3.org/2000/svg" version="1.1" xmlns:xlink="http://www.w3.org/1999/xlink" xmlns:svgjs="http://svgjs.dev/svgjs" width="100%" height="100%" viewBox="0 0 1000 600"><rect width="1000" height="600" x="0" y="0" fill=" #6d28d9"/><g><rect width="333.3333333333333" height="333.3333333333333" rx="13.333333333333334" ry="13.333333333333334" y="366.94417774025595" fill="#ffffff" transform="matrix(0.36261102601922973,0,0,0.3626110260192298,0,106.5067997341539)" x="344.72183227539057"/><path d="M402.7890084351637 608.6108621383594L404.1443351801352 598.1779981247416Q414.829353006771 596.1292483939708 418.58014097541303 592.1578258389379Q422.2994097174278 588.1864032839053 422.2994097174278 578.6675968424775L422.2994097174278 578.6675968424775L422.5515635304458 483.3534555216912Q422.5515635304458 476.1040333974251 420.8495252925746 473.5824952672456Q419.1474870547034 471.09247636369327 414.13593002097156 471.09247636369327L414.13593002097156 471.09247636369327L404.61712357954383 471.56526476310194L404.1443351801352 470.65120719091186L405.75181573812466 460.65961235007546Q409.37652680025775 460.65961235007546 411.4252765310286 460.88024693646616L411.4252765310286 460.88024693646616L432.7637929576728 461.3530353358749Q442.9760223849 461.3530353358749 458.86171260503096 459.304285605104L458.86171260503096 459.304285605104L457.94765503284094 469.5165150323311Q448.6494831778039 470.65120719091186 445.3399643819433 473.26730300097313Q442.06196481270985 475.85187958440713 441.58917641330123 482.4393979495012L441.58917641330123 482.4393979495012Q440.2338496683297 509.01010599626795 439.3197920961396 537.9447560400781Q438.4372537505768 566.8794060838882 438.4372537505768 580.4957119868577L438.4372537505768 580.4957119868577Q438.4372537505768 589.7938838418947 440.4544842547204 592.8512488247375Q442.50323398549125 595.90861380758 448.39732936478595 595.90861380758L448.39732936478595 595.90861380758Q452.274194239937 595.90861380758 460.4376739363932 595.246710048408L460.4376739363932 595.246710048408L460.8789431091746 596.1292483939708L458.86171260503096 606.5936316342159Q455.67827071567933 606.5936316342159 453.8501555712992 606.3414778211979L453.8501555712992 606.3414778211979Q437.96446535116814 605.9002086484165 429.1075626689125 605.9002086484165L429.1075626689125 605.9002086484165Q418.0127948961226 605.9002086484165 402.7890084351637 608.6108621383594L402.7890084351637 608.6108621383594ZM543.9636244985902 608.6108621383594Q525.5563961482796 608.6108621383594 511.27818648613794 599.7854786827311Q496.96845759736914 590.9285760004755 489.0256124873036 574.9168088738354Q481.0827673772381 558.9365609738227 481.0827673772381 538.5121021193685L481.0827673772381 538.5121021193685Q481.0827673772381 516.2595281205341 490.9482853115655 497.9783766767325Q500.84532247252014 479.7287444595582 517.9602625311138 469.16980353943137Q535.1067218163346 458.6108626193046 555.7518152571795 458.6108626193046L555.7518152571795 458.6108626193046Q574.6003127802715 458.6108626193046 589.0991570288038 467.46776530156023Q603.6295205039632 476.3246679838158 611.7930002004196 492.21035820394684Q619.987999123503 508.0960484240779 619.987999123503 528.520507278532L619.987999123503 528.520507278532Q619.987999123503 550.7415620507392 609.8703273761575 569.1487904010498Q599.7841748554395 587.5244995247331 582.4170809838279 598.0834404448599Q565.0499871122165 608.6108621383594 543.9636244985902 608.6108621383594L543.9636244985902 608.6108621383594ZM550.9924120364656 597.0433059661609Q565.2706216986071 597.0433059661609 576.3969086980244 589.5732492555039Q587.5231956974415 582.0716733182198 593.6379256631269 568.6760020016411Q599.7841748554395 555.2803306850624 599.7841748554395 538.0393137199599L599.7841748554395 538.0393137199599Q599.7841748554395 518.7495470240864 593.1966564903455 503.90399128265443Q586.6091381252513 489.0269163145952 574.9155050465438 480.64280203174826Q563.2533911944636 472.2271685222741 548.0296047335046 472.2271685222741L548.0296047335046 472.2271685222741Q534.1926642441445 472.2271685222741 523.413088737627 479.7287444595582Q512.6335132311094 487.198801170215 506.6133409453058 500.5944724867938Q500.5931686595022 513.9901438033726 500.5931686595022 531.2311607684751L500.5931686595022 531.2311607684751Q500.5931686595022 550.5209274643485 506.96005243820554 565.3980024324077Q513.326936216909 580.2435581738398 524.7684154825984 588.659191683314Q536.2414139749153 597.0433059661609 550.9924120364656 597.0433059661609L550.9924120364656 597.0433059661609Z " fill="#6d28d9" transform="matrix(0.36261102601922973,0,0,0.3626110260192298,0,106.5067997341539)"/><path d="M761.3885044918007 608.1395664241684L762.7395728388093 597.7394821716134Q773.3595984501798 595.6971695540421 777.0986015500409 591.7382250953656Q780.8376046499021 587.779280636689 780.8376046499021 578.290382013512L780.8376046499021 578.290382013512L781.0575460087174 483.27571500527506Q781.0575460087174 476.04907035848464 779.3608555264275 473.53545482916616Q777.6641650441376 471.0532594939642 772.6997743737337 471.0532594939642L772.6997743737337 471.0532594939642L763.1794555564401 471.52456240571144L762.7395728388093 470.6133767763335L764.3105825446333 460.6531752414092Q767.9553250621451 460.6531752414092 769.9662174855998 460.87311660022453L769.9662174855998 460.87311660022453L791.2376889024571 461.34441951197175Q801.4178317961968 461.34441951197175 817.2536096309029 459.30210689440054L817.2536096309029 459.30210689440054L816.342424001525 469.48224978814017Q807.0734667371632 470.6133767763335 803.8057665490493 473.22125288800135Q800.5066461668188 475.79770880555276 800.0667634491881 482.3645293758972L800.0667634491881 482.3645293758972Q798.7156951021794 508.8517530160902 797.8045094728014 537.6954912150193Q796.8933238434237 566.5392294139483 796.8933238434237 580.1127532722678L796.8933238434237 580.1127532722678Q796.8933238434237 589.3817105366295 798.9356364609948 592.4294693659283Q800.977949078566 595.4772281952269 806.8535253783479 595.4772281952269L806.8535253783479 595.4772281952269Q810.6867890605585 595.4772281952269 818.8560395308434 594.8174041187808L818.8560395308434 594.8174041187808L819.2959222484741 595.6971695540421L817.2536096309029 606.1286740007138Q814.0801700251384 606.1286740007138 812.2892189604989 605.8773124477818L812.2892189604989 605.8773124477818Q796.4534411257929 605.437429730151 787.6243665790619 605.437429730151L787.6243665790619 605.437429730151Q776.5330380559443 605.437429730151 761.3885044918007 608.1395664241684L761.3885044918007 608.1395664241684ZM905.2615733511645 608.6108693359156Q882.4190922284834 546.6188263440997 871.1078223465504 517.9007689216365L871.1078223465504 517.9007689216365L869.9766953583571 517.9007689216365Q869.0655097289791 528.7407358918223 866.6775749761266 558.3699789436633Q864.3210604173905 588.030642189621 864.3210604173905 590.9527202424536L864.3210604173905 590.9527202424536Q864.3210604173905 593.9062184894028 865.6721287643993 595.1316060599456Q867.0231971114079 596.3884138246046 870.1966367171724 596.3884138246046L870.1966367171724 596.3884138246046L877.4232813639629 596.3884138246046L877.8945842757101 597.0796580951674L876.2921543757697 606.1286740007138Q874.2812619523149 606.1286740007138 868.4999462348825 605.7830518654323Q862.71863051745 605.437429730151 857.0629955764837 605.437429730151L857.0629955764837 605.437429730151Q852.5384876237105 605.437429730151 847.3541555944912 606.0029932242478Q842.1384033711554 606.5685567183443 840.5673936653315 606.7884980771598L840.5673936653315 606.7884980771598L841.4785792947093 597.5195408127979Q847.3541555944912 596.8282965422354 849.8363509296931 594.0004790717521Q852.3185462648951 591.172661601269 853.229731894273 584.1659583132939L853.229731894273 584.1659583132939Q855.052103153029 568.8014833903349 858.0998619823275 540.9631914031331Q861.1476208116261 513.1248994159315 861.1476208116261 509.73151845135163L861.1476208116261 509.73151845135163Q861.1476208116261 505.2070104985784 857.6285590705803 503.0704372986578Q854.140917523651 500.9338640987371 845.5317843357353 500.4625611869899L845.5317843357353 500.4625611869899L844.8719602592893 499.3314341987966L846.4429699651132 491.88484819319075Q848.9251653003151 492.1047895520061 855.2720445118442 492.4504116872874Q861.5875035292568 492.7646136284522 867.4945000231551 492.7646136284522L867.4945000231551 492.7646136284522Q872.458890693559 492.7646136284522 876.6377765110509 492.54467226963686Q880.8166623285429 492.3247309108215 882.199150869668 492.1047895520061L882.199150869668 492.1047895520061Q888.9859127988277 513.1248994159315 895.4270525927062 531.5685533623055Q901.8681923865847 550.0122073086795 906.0470782040766 560.9778550553312Q910.2259640215685 571.943502801983 911.3570910097618 574.6770596901167L911.3570910097618 574.6770596901167L912.4882179979551 574.6770596901167Q915.0018335272736 568.3301804785876 923.7052272975386 545.0478166382757Q932.4086210678037 521.7340326038471 942.5887639615433 492.54467226963686L942.5887639615433 492.54467226963686Q943.939832308552 492.3247309108215 946.1078257025891 492.4504116872874Q948.2443989025098 492.54467226963686 950.2867115200811 492.54467226963686L950.2867115200811 492.54467226963686Q952.768906855283 492.7646136284522 957.5133561668715 492.7646136284522L957.5133561668715 492.7646136284522Q961.1266784902668 492.7646136284522 968.0391211958924 492.3247309108215Q974.9515639015183 491.88484819319075 977.2138178779048 491.6334866402589L977.2138178779048 491.6334866402589L977.6537005955356 492.3247309108215L976.5225736073422 500.24261982817455Q968.6046846899892 501.1538054575525 965.4312450842247 503.2903786574732Q962.2578054784601 505.4583720515103 962.2578054784601 509.98288000428346L962.2578054784601 509.98288000428346Q962.2578054784601 514.5073879570566 963.8602353784006 538.7009374267466Q965.4312450842247 562.8944868964365 967.0336749841651 579.8613917193361L967.0336749841651 579.8613917193361Q968.1648019723584 590.0415346130758 969.9557530369979 593.2149742188403Q971.7781242957537 596.3884138246046 976.0826908897116 596.3884138246046L976.0826908897116 596.3884138246046L981.2670229189307 596.1684724657894L981.7383258306779 596.8282965422354L980.1358959307374 605.8773124477818Q978.3449448660981 605.8773124477818 973.1291926427624 605.6573710889666Q967.9134404194266 605.437429730151 962.0378641196448 605.437429730151L962.0378641196448 605.437429730151Q956.162287819863 605.437429730151 948.6842816201406 606.1286740007138Q941.2376956145347 606.7884980771598 940.7663927027875 606.7884980771598L940.7663927027875 606.7884980771598L941.6775783321655 597.5195408127979Q947.5531546319473 596.8282965422354 950.0667701612657 594.8174041187808Q952.5489654964676 592.7750915012095 952.5489654964676 588.690466266067L952.5489654964676 588.690466266067Q952.5489654964676 584.6372612250411 950.1610307436151 556.3590865202086Q947.8045161848792 528.0809118153762 946.8933305555012 517.9007689216365L946.8933305555012 517.9007689216365L945.7622035673079 517.9007689216365Q932.4086210678037 552.0545199262508 911.828393921509 607.259800988907L911.828393921509 607.259800988907L905.2615733511645 608.6108693359156ZM1056.3927070514355 607.0084394359751L1055.701462780873 605.8773124477818L1056.3927070514355 597.7394821716134Q1065.8816056746127 597.0796580951674 1069.1493058627266 595.6971695540421Q1072.4484262449573 594.3461012070336 1072.4484262449573 591.172661601269L1072.4484262449573 591.172661601269Q1072.4484262449573 587.5593392778737 1070.8459963450164 583.5061342368479L1070.8459963450164 583.5061342368479L1065.4417229569817 566.0679265022011Q1060.9172150042086 565.8479851433857 1046.6524468753269 565.8479851433857L1046.6524468753269 565.8479851433857Q1040.0856263049823 565.8479851433857 1027.2033467172255 567.1990534903944L1027.2033467172255 567.1990534903944L1020.8564675056962 583.9460169544784Q1019.2854577998721 589.1617691778142 1019.2854577998721 590.2928961660075L1019.2854577998721 590.2928961660075Q1019.2854577998721 593.9062184894028 1021.767653135074 595.4772281952269Q1024.249848470276 597.0796580951674 1029.9054834112426 597.0796580951674L1029.9054834112426 597.0796580951674L1039.6457435873517 597.0796580951674L1040.3055676637978 597.9594235304287L1038.9544993167888 606.5685567183443Q1036.6922453404022 606.348615359529 1028.6800958406998 605.8773124477818Q1020.6365261468807 605.437429730151 1012.938578588343 605.437429730151L1012.938578588343 605.437429730151Q1005.7119339415526 605.437429730151 999.9306182241202 605.6573710889666Q994.1807227008043 605.8773124477818 992.138410083233 605.8773124477818L992.138410083233 605.8773124477818L993.4894784302417 596.6083551834201Q998.4538691006455 595.9485311069741 1001.4073673475948 593.1207136364908Q1004.360865594544 590.2928961660075 1007.2829436473766 583.5061342368479L1007.2829436473766 583.5061342368479L1042.8191831931163 493.67579925783014L1058.8749023866376 490.7537212049975L1060.4459120924616 490.9736625638128Q1060.4459120924616 491.88484819319075 1070.751735762667 526.6984232742511Q1081.026139238756 561.5434185494279 1089.1953897090411 584.3858996721092L1089.1953897090411 584.3858996721092Q1091.4576436854277 590.9527202424536 1094.945285232357 593.5605963541216Q1098.4643469734028 596.1684724657894 1106.1622945319405 596.8282965422354L1106.1622945319405 596.8282965422354L1106.6021772495715 597.7394821716134L1105.471050261378 605.8773124477818Q1103.2087962849914 605.8773124477818 1097.1132786263943 605.6573710889666Q1090.9863407736807 605.437429730151 1084.8908231150835 605.437429730151L1084.8908231150835 605.437429730151Q1075.6218658507214 605.437429730151 1067.2326740216213 606.1286740007138Q1058.8749023866376 606.7884980771598 1056.3927070514355 607.0084394359751L1056.3927070514355 607.0084394359751ZM1030.8166690406206 556.5790278790239L1046.2125641576959 556.5790278790239Q1054.130453075049 556.5790278790239 1062.7081660688482 555.667842249646L1062.7081660688482 555.667842249646L1048.9147008517134 511.77383106892285L1047.3436911458894 511.77383106892285L1030.8166690406206 556.5790278790239ZM1169.0341029590181 607.4797423477223Q1144.1493092187657 607.4797423477223 1129.3503977899031 592.6494107247436Q1114.5200661669246 577.8504992958813 1114.5200661669246 552.7143440026969L1114.5200661669246 552.7143440026969Q1114.5200661669246 534.1764294739735 1122.6578964430928 520.1630228980232Q1130.7957267192614 506.11819612795637 1145.62605834224 498.4202485694187Q1160.456389965219 490.7537212049975 1179.9054901233203 490.7537212049975L1179.9054901233203 490.7537212049975Q1186.9121934112954 490.7537212049975 1194.9557631051143 491.6334866402589Q1202.9679126048168 492.54467226963686 1208.749228322249 493.67579925783014Q1214.499123845565 494.8069262460234 1216.1015537455055 495.0268676048388L1216.1015537455055 495.0268676048388L1217.0127393748835 496.4093561459639Q1216.7613778219516 497.5404831341572 1215.7559316102243 501.71936895164913Q1214.750485398497 505.89825476914103 1213.7136189926532 512.5593359218349Q1212.708172780926 519.2518372686452 1212.2368698691785 526.6984232742511L1212.2368698691785 526.6984232742511L1201.1769615401772 527.609608903629Q1201.1769615401772 526.6984232742511 1201.3969028989927 524.1219673566997Q1201.6168442578082 521.5140912450318 1201.6168442578082 518.1207102804519L1201.6168442578082 518.1207102804519Q1201.6168442578082 510.20282136309885 1195.521326599211 506.683759622053Q1189.394388746497 503.1961180751237 1175.6009235293623 503.1961180751237L1175.6009235293623 503.1961180751237Q1155.4605791006984 503.1961180751237 1144.714872712862 514.3817071805908Q1133.969166325026 525.5672962860577 1133.969166325026 546.838767702915L1133.969166325026 546.838767702915Q1133.969166325026 569.6812488255964 1144.6206121305127 582.9405707427511Q1155.240637741883 596.1684724657894 1173.3386695529757 596.1684724657894L1173.3386695529757 596.1684724657894Q1179.6855487645048 596.1684724657894 1184.869880793724 594.8174041187808Q1190.08563301706 593.4349155776556 1193.1333918463583 592.0838472306468Q1196.1811506756571 590.7327788836383 1196.8723949462196 590.2928961660075L1196.8723949462196 590.2928961660075L1196.8723949462196 570.3724930961589Q1196.8723949462196 564.7168581551924 1194.9557631051143 562.8944868964365Q1193.0077110698926 561.1035358317972 1187.1321347701105 561.1035358317972L1187.1321347701105 561.1035358317972L1175.1610408117317 561.1035358317972L1174.6897378999843 560.1923502024192L1176.5121091587403 550.2321486674949Q1177.4232947881183 550.2321486674949 1184.9955615701901 550.4520900263103Q1192.5678283522616 550.7034515792421 1200.4857172696147 550.7034515792421L1200.4857172696147 550.7034515792421Q1205.7014694929508 550.7034515792421 1210.7915409398206 550.3578294439608Q1215.8816123866904 550.0122073086795 1217.232680733699 549.7922659498643L1217.232680733699 549.7922659498643L1218.143866363077 554.7566566202681Q1214.499123845565 557.4902135084019 1213.2737362750227 563.1458484493684Q1212.0169285103634 568.8014833903349 1212.0169285103634 582.5949486074699L1212.0169285103634 582.5949486074699Q1212.0169285103634 592.7750915012095 1213.1480554985565 597.9594235304287L1213.1480554985565 597.9594235304287L1212.0169285103634 599.7817947891847Q1210.4459188045394 600.4730390597472 1204.6646030871066 602.2639901243865Q1198.9147075637907 604.0863613831425 1189.394388746497 605.7830518654323Q1179.9054901233203 607.4797423477223 1169.0341029590181 607.4797423477223L1169.0341029590181 607.4797423477223ZM1245.5108554385315 607.259800988907L1246.6419824267246 597.7394821716134Q1254.9997540617082 596.8282965422354 1257.9532523086577 593.6862771305875Q1260.87533036149 590.512837524823 1260.87533036149 582.8148899662851L1260.87533036149 582.8148899662851L1261.1266919144218 511.1140069924768Q1261.1266919144218 505.4583720515103 1259.7442033732968 503.5103200162885Q1258.3931350262883 501.5936881751832 1254.3399299852622 501.5936881751832L1254.3399299852622 501.5936881751832L1248.2129921325486 501.81362953399855L1247.773109414918 500.9338640987371L1249.1241777619266 492.3247309108215Q1251.8263144559437 492.3247309108215 1259.7442033732968 492.54467226963686Q1267.66209229065 492.7646136284522 1276.962469749128 492.7646136284522L1276.962469749128 492.7646136284522Q1314.7295430771378 492.7646136284522 1332.8275748882302 490.7537212049975L1332.8275748882302 490.7537212049975L1333.5188191587931 491.88484819319075Q1333.0475162470457 494.3670435283927 1331.4765065412216 503.1961180751237Q1329.8740766412811 511.99377242773824 1329.214252564835 522.1739153214778L1329.214252564835 522.1739153214778L1318.342865400533 523.0851009508558Q1318.342865400533 522.1739153214778 1318.5628067593484 520.0373421215572Q1318.81416831228 517.9007689216365 1318.81416831228 515.63851494525L1318.81416831228 515.63851494525Q1318.81416831228 509.73151845135163 1317.11747782999 507.3750038926156Q1315.4207873477003 504.9870691397631 1310.0793543478985 504.20156428685107Q1304.7693415422132 503.41605943393904 1291.6671205956409 503.41605943393904L1291.6671205956409 503.41605943393904Q1285.5401827429273 503.41605943393904 1283.2779287665408 503.76168156922034Q1281.0156747901542 504.07588351038515 1280.3558507137082 505.3326912750444Q1279.6646064431457 506.5894990397036 1279.4446650843302 509.98288000428346L1279.4446650843302 509.98288000428346L1278.0935967373216 542.0943183913265L1296.631511266045 542.3142597501419Q1300.7161365011875 542.3142597501419 1308.6340254185407 541.5287548972299Q1316.5519143358933 540.7432500443178 1319.0341096710954 540.5233086855025L1319.0341096710954 540.5233086855025L1319.9452953004734 541.6544356736957L1317.2117384123399 553.4055882732595Q1314.7295430771378 553.4055882732595 1307.3772176538814 553.1856469144441Q1300.024892230625 552.9657055556287 1291.8870619544564 552.9657055556287L1291.8870619544564 552.9657055556287Q1285.5401827429273 552.9657055556287 1277.6222938255742 554.0968325438221L1277.6222938255742 554.0968325438221Q1276.962469749128 571.2836787255369 1276.962469749128 585.0771439426717L1276.962469749128 585.0771439426717Q1276.962469749128 590.2928961660075 1277.7479746020404 592.3037885894623Q1278.5334794549522 594.3461012070336 1281.3612969254355 595.0373454775961Q1284.1891143959188 595.6971695540421 1290.7559349662633 595.6971695540421L1290.7559349662633 595.6971695540421Q1305.4605858127761 595.6971695540421 1311.7760448301883 594.3461012070336Q1318.1229240417174 592.9950328600248 1320.7308001533856 588.816147042533Q1323.3386762650534 584.6372612250411 1324.9096859708775 574.4571183313014L1324.9096859708775 574.4571183313014L1334.8698875058017 573.5459327019234L1335.7810731351797 574.6770596901167Q1335.0898288646172 577.1592550253188 1333.393138382327 586.3339517073309Q1331.6964479000371 595.4772281952269 1330.7852622706591 605.437429730151L1330.7852622706591 605.437429730151L1329.4341939236506 606.5685567183443Q1323.3386762650534 606.348615359529 1304.1095174657676 605.8773124477818Q1284.8803586664812 605.437429730151 1272.8778445139856 605.437429730151L1272.8778445139856 605.437429730151Q1263.6088872496239 605.437429730151 1255.6909983322707 606.2229345830631Q1247.773109414918 607.0084394359751 1245.5108554385315 607.259800988907L1245.5108554385315 607.259800988907ZM1464.7295497892155 608.1395664241684Q1446.3801564251908 608.1395664241684 1432.146808490425 599.3419120715539Q1417.8820403615432 590.512837524823 1409.96415144419 574.5513789136508Q1402.046262526837 558.6213404965952 1402.046262526837 538.2610547091158L1402.046262526837 538.2610547091158Q1402.046262526837 516.0783976628807 1411.8807832852954 497.85468507532204Q1421.7467242378702 479.66239268187985 1438.8078896431189 469.1366276528589Q1455.9004752424844 458.610862623838 1476.4807023887793 458.610862623838L1476.4807023887793 458.610862623838Q1495.2699784704346 458.610862623838 1509.7232677640154 467.43993717056895Q1524.2079772517127 476.2690117173 1532.3458075278813 492.1047895520061Q1540.5150579981664 507.94056738671225 1540.5150579981664 528.3008531741916L1540.5150579981664 528.3008531741916Q1540.5150579981664 550.4520900263103 1530.429175686776 568.8014833903349Q1520.3747135695025 587.119456560243 1503.0621866113215 597.6452215892639Q1485.749659653141 608.1395664241684 1464.7295497892155 608.1395664241684L1464.7295497892155 608.1395664241684ZM1471.7362530771907 596.6083551834201Q1485.969601011956 596.6083551834201 1497.0609295350737 589.1617691778142Q1508.1522580581914 581.6837629780919 1514.2477757167885 568.3301804785876Q1520.3747135695025 554.9765979790834 1520.3747135695025 537.7897517973687L1520.3747135695025 537.7897517973687Q1520.3747135695025 518.5605929980827 1513.807892999158 503.76168156922034Q1507.2410724288134 488.9313499462416 1495.5841804115994 480.5735783112578Q1483.9587085885014 472.1843864821575 1468.7827548302412 472.1843864821575L1468.7827548302412 472.1843864821575Q1454.9892896131064 472.1843864821575 1444.2435832252704 479.66239268187985Q1433.497876837434 487.1089786874857 1427.4966197611861 500.4625611869899Q1421.4953626849383 513.8161436864941 1421.4953626849383 531.0029898682089L1421.4953626849383 531.0029898682089Q1421.4953626849383 550.2321486674949 1427.8422418964674 565.0624802904737Q1434.1891211079965 579.8613917193361 1445.594651572279 588.2505835484362Q1457.031602230678 596.6083551834201 1471.7362530771907 596.6083551834201L1471.7362530771907 596.6083551834201ZM1562.6662948502849 606.7884980771598L1564.0173631972934 597.5195408127979Q1571.9352521146466 596.1684724657894 1574.5431282263144 593.3406549953061Q1577.1510043379826 590.512837524823 1577.1510043379826 583.0348313251006L1577.1510043379826 583.0348313251006L1577.3709456967977 511.1140069924768Q1577.3709456967977 505.4583720515103 1576.019877349789 503.5103200162885Q1574.6688090027806 501.5936881751832 1570.804125126453 501.5936881751832L1570.804125126453 501.5936881751832L1564.4886661090409 501.81362953399855L1563.7974218384784 500.9338640987371L1565.148490185487 492.3247309108215Q1566.27961717368 492.3247309108215 1571.8409915322973 492.54467226963686Q1577.3709456967977 492.7646136284522 1586.4199616023443 492.7646136284522L1586.4199616023443 492.7646136284522Q1592.5468994550579 492.7646136284522 1600.213426819479 492.4504116872874Q1607.9113743780167 492.1047895520061 1611.0848139837813 492.1047895520061L1611.0848139837813 492.1047895520061Q1631.4450997712606 492.1047895520061 1641.750923441466 500.6825025458053Q1652.025326917555 509.2916357337209 1652.025326917555 524.2162279390491L1652.025326917555 524.2162279390491Q1652.025326917555 534.1764294739735 1645.929809258958 543.2254453795198Q1639.8028714062443 552.2744612850661 1629.9683506477859 557.8044154495667Q1620.133829889328 563.3657898081838 1609.0425013662098 563.3657898081838L1609.0425013662098 563.3657898081838L1593.4266648903194 563.3657898081838L1593.206723531504 579.20156764289Q1593.206723531504 587.119456560243 1593.7722870256007 590.6070981071723Q1594.337850519697 594.1261598482181 1595.9402804196375 595.2572868364114Q1597.5112901254615 596.3884138246046 1601.3445538076721 596.3884138246046L1601.3445538076721 596.3884138246046Q1604.2980520546216 596.3884138246046 1607.2515503015707 596.1684724657894Q1610.1736283544033 595.9485311069741 1611.0848139837813 595.9485311069741L1611.0848139837813 595.9485311069741L1611.5246967014123 596.8282965422354L1609.7337456367727 605.8773124477818Q1607.6914330192012 605.8773124477818 1602.2557394370501 605.6573710889666Q1596.820045854899 605.437429730151 1591.1644109139324 605.437429730151L1591.1644109139324 605.437429730151Q1583.7178249083267 605.437429730151 1573.3177406557716 605.8773124477818Q1562.8862362091004 606.348615359529 1562.6662948502849 606.7884980771598L1562.6662948502849 606.7884980771598ZM1612.6558236896053 553.6255296320749Q1633.7073537476472 550.2321486674949 1633.7073537476472 527.3896675448136L1633.7073537476472 527.3896675448136Q1633.7073537476472 514.727329315872 1625.789464830294 508.7260722396243Q1617.871575912941 502.7248151633765 1600.6847297312265 502.7248151633765L1600.6847297312265 502.7248151633765Q1597.5112901254615 502.7248151633765 1596.820045854899 503.0704372986578Q1596.160221778453 503.41605943393904 1595.9402804196375 505.4583720515103L1595.9402804196375 505.4583720515103Q1594.117909160882 534.1764294739735 1593.8979678020664 551.1433342968728L1593.8979678020664 551.1433342968728L1612.6558236896053 553.6255296320749ZM1682.7856969575896 606.348615359529L1684.38812685753 597.2995994539826Q1693.4371427630763 596.6083551834201 1697.1761458629376 595.0373454775961Q1700.8837287686824 593.4349155776556 1701.9205951745262 589.727332671911Q1702.9260413862535 585.9883295720497 1702.9260413862535 576.719372307688L1702.9260413862535 576.719372307688L1702.9260413862535 501.81362953399855Q1688.6926934514881 502.28493244574577 1683.6968825869676 503.41605943393904Q1678.7324919165635 504.54718642213237 1676.3445571637112 508.7260722396243Q1673.988042604975 512.9049580571161 1672.3856127050344 524.4361692978645L1672.3856127050344 524.4361692978645L1661.7655870936642 525.1274135684271Q1662.2054698112947 522.1739153214778 1663.242336217139 512.1194532042041Q1664.2477824288662 502.0649910869304 1664.4677237876813 492.3247309108215L1664.4677237876813 492.3247309108215L1666.2900950464373 490.7537212049975L1682.345814239959 492.54467226963686L1740.0332906378167 492.54467226963686L1756.5603127430854 490.7537212049975L1758.351263807725 492.3247309108215Q1758.5712051665405 502.28493244574577 1759.4823907959185 511.99377242773824Q1760.3935764252965 521.7340326038471 1760.833459142927 524.4361692978645L1760.833459142927 524.4361692978645L1750.4333748903719 525.1274135684271Q1748.6424238257327 513.3762609688633 1746.25448907288 508.9460135984396Q1743.8665543200277 504.54718642213237 1739.2477857849049 503.41605943393904Q1734.5975970556656 502.28493244574577 1721.4953761090937 501.81362953399855L1721.4953761090937 501.81362953399855Q1720.3642491209002 512.6850166983008 1719.4530634915222 537.9154325738346Q1718.5418778621442 563.1458484493684 1718.5418778621442 584.3858996721092L1718.5418778621442 584.3858996721092Q1718.5418778621442 590.9527202424536 1721.0240731973463 593.6862771305875Q1723.5062685325483 596.3884138246046 1729.161903473515 596.3884138246046L1729.161903473515 596.3884138246046Q1733.246528708657 596.3884138246046 1735.8544048203253 596.1684724657894Q1738.462280931993 595.9485311069741 1739.1221050084391 595.9485311069741L1739.1221050084391 595.9485311069741L1739.8133492790016 596.6083551834201L1738.2109193790611 606.1286740007138Q1735.068899967413 606.1286740007138 1726.4597667794974 605.7830518654323Q1717.8506335915818 605.437429730151 1709.7128033154136 605.437429730151L1709.7128033154136 605.437429730151Q1701.574973039245 605.437429730151 1693.6570841218918 605.7830518654323Q1685.7391952045386 606.1286740007138 1682.7856969575896 606.348615359529L1682.7856969575896 606.348615359529ZM1777.1405398893803 607.4797423477223L1778.2716668775734 598.2107850833606Q1786.849379871373 596.6083551834201 1789.802878118322 593.5605963541216Q1792.756376365271 590.512837524823 1792.756376365271 583.0348313251006L1792.756376365271 583.0348313251006L1792.9763177240866 511.1140069924768Q1792.9763177240866 505.4583720515103 1791.6252493770776 503.5103200162885Q1790.242760835953 501.5936881751832 1786.189555794927 501.5936881751832L1786.189555794927 501.5936881751832L1778.7115495952044 501.81362953399855L1778.2716668775734 500.9338640987371L1779.4027938657669 492.3247309108215Q1780.7538622127759 492.3247309108215 1786.7551192890232 492.54467226963686Q1792.756376365271 492.7646136284522 1802.4652163472638 492.7646136284522L1802.4652163472638 492.7646136284522Q1807.6809685705994 492.7646136284522 1815.2532353526713 492.1047895520061Q1822.8255021347427 491.41354528144353 1825.0877561111297 491.1936039226282L1825.0877561111297 491.1936039226282L1824.1765704817517 500.4625611869899Q1816.7299844761455 501.3737468163678 1814.247789140944 503.2903786574732Q1811.7341736116255 505.2070104985784 1811.294290893995 510.4227627219142L1811.294290893995 510.4227627219142Q1810.3831052646165 528.5207945330069 1809.5976004117047 550.4520900263103Q1808.8120955587924 572.4148057137302 1808.8120955587924 584.3858996721092L1808.8120955587924 584.3858996721092Q1808.8120955587924 591.6439645130163 1810.3831052646165 594.1261598482181Q1811.9855351645574 596.6083551834201 1816.7299844761455 596.6083551834201L1816.7299844761455 596.6083551834201Q1819.90342408191 596.6083551834201 1822.4798799994614 596.3884138246046Q1825.0877561111297 596.1684724657894 1825.9989417405072 595.9485311069741L1825.9989417405072 595.9485311069741L1826.4388244581382 596.8282965422354L1824.8678147523142 605.8773124477818Q1822.1656780582966 605.8773124477818 1814.6876718585745 605.6573710889666Q1807.209665658852 605.437429730151 1799.7630796532462 605.437429730151L1799.7630796532462 605.437429730151Q1793.6361418005326 605.437429730151 1786.5351779302082 606.2229345830631Q1779.4027938657669 607.0084394359751 1777.1405398893803 607.4797423477223L1777.1405398893803 607.4797423477223ZM1912.1845342020133 608.6108693359156Q1889.342053079332 546.6188263440997 1878.0307831973992 517.9007689216365L1878.0307831973992 517.9007689216365L1876.8996562092057 517.9007689216365Q1875.9884705798277 528.7407358918223 1873.6319560210918 558.3699789436633Q1871.2440212682395 588.030642189621 1871.2440212682395 590.9527202424536L1871.2440212682395 590.9527202424536Q1871.2440212682395 593.9062184894028 1872.595089615248 595.1316060599456Q1873.9461579622566 596.3884138246046 1877.1195975680212 596.3884138246046L1877.1195975680212 596.3884138246046L1884.3776624089282 596.3884138246046L1884.8175451265588 597.0796580951674L1883.2465354207347 606.1286740007138Q1881.2042228031637 606.1286740007138 1875.4229070857314 605.7830518654323Q1869.673011562415 605.437429730151 1864.0173766214489 605.437429730151L1864.0173766214489 605.437429730151Q1859.4928686686758 605.437429730151 1854.2771164453397 606.0029932242478Q1849.0613642220042 606.5685567183443 1847.49035451618 606.7884980771598L1847.49035451618 606.7884980771598L1848.401540145558 597.5195408127979Q1854.2771164453397 596.8282965422354 1856.7593117805418 594.0004790717521Q1859.2415071157438 591.172661601269 1860.1526927451218 584.1659583132939L1860.1526927451218 584.1659583132939Q1861.9750640038774 568.8014833903349 1865.0228228331762 540.9631914031331Q1868.070581662475 513.1248994159315 1868.070581662475 509.73151845135163L1868.070581662475 509.73151845135163Q1868.070581662475 505.2070104985784 1864.5829401155452 503.0704372986578Q1861.0638783744994 500.9338640987371 1852.4547451865842 500.4625611869899L1852.4547451865842 500.4625611869899L1851.7949211101381 499.3314341987966L1853.3659308159617 491.88484819319075Q1855.8481261511638 492.1047895520061 1862.1950053626929 492.4504116872874Q1868.541884574222 492.7646136284522 1874.4174608740036 492.7646136284522L1874.4174608740036 492.7646136284522Q1879.3818515444077 492.7646136284522 1883.5607373618996 492.54467226963686Q1887.7710433735078 492.3247309108215 1889.1221117205164 492.1047895520061L1889.1221117205164 492.1047895520061Q1895.9088736496765 513.1248994159315 1902.3500134435549 531.5685533623055Q1908.7911532374337 550.0122073086795 1912.970039054925 560.9778550553312Q1917.1803450665338 571.943502801983 1918.311472054727 574.6770596901167L1918.311472054727 574.6770596901167L1919.4425990429204 574.6770596901167Q1921.924794378122 568.3301804785876 1930.6281881483874 545.0478166382757Q1939.3315819186523 521.7340326038471 1949.511724812392 492.54467226963686L1949.511724812392 492.54467226963686Q1950.862793159401 492.3247309108215 1953.0307865534378 492.4504116872874Q1955.1673597533586 492.54467226963686 1957.2096723709296 492.54467226963686L1957.2096723709296 492.54467226963686Q1959.6918677061317 492.7646136284522 1964.4363170177203 492.7646136284522L1964.4363170177203 492.7646136284522Q1968.0810595352318 492.7646136284522 1974.9620820467412 492.3247309108215Q1981.874524752367 491.88484819319075 1984.1367787287536 491.6334866402589L1984.1367787287536 491.6334866402589L1984.5766614463842 492.3247309108215L1983.445534458191 500.24261982817455Q1975.527645540838 501.1538054575525 1972.3542059350734 503.2903786574732Q1969.2121865234253 505.4583720515103 1969.2121865234253 509.98288000428346L1969.2121865234253 509.98288000428346Q1969.2121865234253 514.5073879570566 1970.7831962292494 538.7009374267466Q1972.3542059350734 562.8944868964365 1973.956635835014 579.8613917193361L1973.956635835014 579.8613917193361Q1975.0877628232074 590.0415346130758 1976.8787138878465 593.2149742188403Q1978.7010851466025 596.3884138246046 1983.00565174056 596.3884138246046L1983.00565174056 596.3884138246046L1988.1899837697797 596.1684724657894L1988.6612866815267 596.8282965422354L1987.0588567815862 605.8773124477818Q1985.2679057169466 605.8773124477818 1980.052153493611 605.6573710889666Q1974.8678214643915 605.437429730151 1968.9608249704934 605.437429730151L1968.9608249704934 605.437429730151Q1963.0852486707117 605.437429730151 1955.638662665106 606.1286740007138Q1948.1606564653835 606.7884980771598 1947.7207737477524 606.7884980771598L1947.7207737477524 606.7884980771598L1948.600539183014 597.5195408127979Q1954.5075356769125 596.8282965422354 1956.9897310121146 594.8174041187808Q1959.4719263473162 592.7750915012095 1959.4719263473162 588.690466266067L1959.4719263473162 588.690466266067Q1959.4719263473162 584.6372612250411 1957.083991594464 556.3590865202086Q1954.7274770357276 528.0809118153762 1953.81629140635 517.9007689216365L1953.81629140635 517.9007689216365L1952.6851644181565 517.9007689216365Q1939.3315819186523 552.0545199262508 1918.7513547723574 607.259800988907L1918.7513547723574 607.259800988907L1912.1845342020133 608.6108693359156ZM2011.063885086577 607.4797423477223L2012.1950120747706 598.2107850833606Q2020.7727250685698 596.6083551834201 2023.7262233155188 593.5605963541216Q2026.6483013683514 590.512837524823 2026.6483013683514 583.0348313251006L2026.6483013683514 583.0348313251006L2026.8996629212834 511.1140069924768Q2026.8996629212834 505.4583720515103 2025.517174380158 503.5103200162885Q2024.1661060331494 501.5936881751832 2020.1129009921237 501.5936881751832L2020.1129009921237 501.5936881751832L2012.6348947924012 501.81362953399855L2012.1950120747706 500.9338640987371L2013.3261390629636 492.3247309108215Q2014.6772074099727 492.3247309108215 2020.67846448622 492.54467226963686Q2026.6483013683514 492.7646136284522 2036.3885615444606 492.7646136284522L2036.3885615444606 492.7646136284522Q2041.6043137677962 492.7646136284522 2049.176580549868 492.1047895520061Q2056.74884733194 491.41354528144353 2059.0111013083265 491.1936039226282L2059.0111013083265 491.1936039226282L2058.0999156789485 500.4625611869899Q2050.653329673343 501.3737468163678 2048.139714144024 503.2903786574732Q2045.6575188088223 505.2070104985784 2045.2176360911913 510.4227627219142L2045.2176360911913 510.4227627219142Q2044.3064504618137 528.5207945330069 2043.5209456089015 550.4520900263103Q2042.7354407559897 572.4148057137302 2042.7354407559897 584.3858996721092L2042.7354407559897 584.3858996721092Q2042.7354407559897 591.6439645130163 2044.3064504618137 594.1261598482181Q2045.8774601676378 596.6083551834201 2050.653329673343 596.6083551834201L2050.653329673343 596.6083551834201Q2053.7953490849904 596.6083551834201 2056.4032251966587 596.3884138246046Q2059.0111013083265 596.1684724657894 2059.9222869377045 595.9485311069741L2059.9222869377045 595.9485311069741L2060.362169655335 596.8282965422354L2058.791159949511 605.8773124477818Q2056.057603061377 605.8773124477818 2048.6110170557718 605.6573710889666Q2041.1330108560492 605.437429730151 2033.6864248504435 605.437429730151L2033.6864248504435 605.437429730151Q2027.5594869977294 605.437429730151 2020.4271029332886 606.2229345830631Q2013.3261390629636 607.0084394359751 2011.063885086577 607.4797423477223L2011.063885086577 607.4797423477223ZM2082.324885342755 606.1286740007138L2079.371387095806 599.7817947891847L2147.4589477462187 502.28493244574577L2117.6097633355625 503.41605943393904Q2104.947425106621 504.07588351038515 2099.857353659751 509.0716943749055Q2094.767282212881 514.0360850453094 2093.384793671756 526.9497848271828L2093.384793671756 526.9497848271828L2082.984709419201 527.8295502624444Q2083.4560123309484 524.6875308507963 2084.6813999014907 513.5962023276787Q2085.93820766615 502.50487380456116 2086.1581490249655 492.3247309108215L2086.1581490249655 492.3247309108215L2088.2004616425365 490.5023596520656L2120.783202941327 492.54467226963686L2170.0814875100846 493.67579925783014L2172.5636828452866 499.3314341987966Q2150.1925046343526 527.3896675448136 2131.057606417416 554.5367152614527Q2111.954128394596 581.6837629780919 2102.213868218487 596.6083551834201L2102.213868218487 596.6083551834201L2137.4987462112945 595.0373454775961Q2147.019065028588 594.5660425658489 2152.768960551904 587.779280636689Q2158.5502762693363 580.9925187075294 2161.252412963354 566.5392294139483L2161.252412963354 566.5392294139483L2171.9038587688406 565.408102425755Q2171.212614498278 568.8014833903349 2169.515924015988 580.5526359898986Q2167.819233533698 592.3037885894623 2167.159409457252 602.9552343949492L2167.159409457252 602.9552343949492L2164.205911210303 605.8773124477818L2095.6470476481427 604.9975470125205L2082.324885342755 606.1286740007138ZM2194.306457173891 607.259800988907L2195.4375841620845 597.7394821716134Q2203.795355797068 596.8282965422354 2206.7488540440177 593.6862771305875Q2209.6709320968503 590.512837524823 2209.6709320968503 582.8148899662851L2209.6709320968503 582.8148899662851L2209.8908734556653 511.1140069924768Q2209.8908734556653 505.4583720515103 2208.5398051086568 503.5103200162885Q2207.188736761648 501.5936881751832 2203.1041115265057 501.5936881751832L2203.1041115265057 501.5936881751832L2197.0085938679085 501.81362953399855L2196.5687111502775 500.9338640987371L2197.9197794972865 492.3247309108215Q2200.6219161913036 492.3247309108215 2208.5398051086568 492.54467226963686Q2216.45769402601 492.7646136284522 2225.7266512903716 492.7646136284522L2225.7266512903716 492.7646136284522Q2263.5251448124977 492.7646136284522 2281.62317662359 490.7537212049975L2281.62317662359 490.7537212049975L2282.283000700036 491.88484819319075Q2281.8431179824056 494.3670435283927 2280.2721082765815 503.1961180751237Q2278.669678376641 511.99377242773824 2278.009854300195 522.1739153214778L2278.009854300195 522.1739153214778L2267.138467135893 523.0851009508558Q2267.138467135893 522.1739153214778 2267.358408494708 520.0373421215572Q2267.5783498535234 517.9007689216365 2267.5783498535234 515.63851494525L2267.5783498535234 515.63851494525Q2267.5783498535234 509.73151845135163 2265.8816593712336 507.3750038926156Q2264.1849688889433 504.9870691397631 2258.8749560832584 504.20156428685107Q2253.564943277573 503.41605943393904 2240.4313021368844 503.41605943393904L2240.4313021368844 503.41605943393904Q2234.335784478287 503.41605943393904 2232.0735305019007 503.76168156922034Q2229.811276525514 504.07588351038515 2229.1200322549516 505.3326912750444Q2228.460208178505 506.5894990397036 2228.24026681969 509.98288000428346L2228.24026681969 509.98288000428346L2226.8577782785646 542.0943183913265L2245.427113001405 542.3142597501419Q2249.4803180424306 542.3142597501419 2257.398206959784 541.5287548972299Q2265.316095877137 540.7432500443178 2267.8297114064553 540.5233086855025L2267.8297114064553 540.5233086855025L2268.709476841717 541.6544356736957L2266.0073401476993 553.4055882732595Q2263.5251448124977 553.4055882732595 2256.172819389241 553.1856469144441Q2248.8204939659845 552.9657055556287 2240.6826636898163 552.9657055556287L2240.6826636898163 552.9657055556287Q2234.335784478287 552.9657055556287 2226.417895560934 554.0968325438221L2226.417895560934 554.0968325438221Q2225.7266512903716 571.2836787255369 2225.7266512903716 585.0771439426717L2225.7266512903716 585.0771439426717Q2225.7266512903716 590.2928961660075 2226.5435763374003 592.3037885894623Q2227.329081190312 594.3461012070336 2230.1568986607954 595.0373454775961Q2232.984716131278 595.6971695540421 2239.5515367016233 595.6971695540421L2239.5515367016233 595.6971695540421Q2254.2561875481356 595.6971695540421 2260.5716465655482 594.3461012070336Q2266.9185257770773 592.9950328600248 2269.526401888745 588.816147042533Q2272.102857806297 584.6372612250411 2273.705287706237 574.4571183313014L2273.705287706237 574.4571183313014L2283.6654892411616 573.5459327019234L2284.545254676423 574.6770596901167Q2283.8854305999766 577.1592550253188 2282.188740117687 586.3339517073309Q2280.492049635397 595.4772281952269 2279.580864006019 605.437429730151L2279.580864006019 605.437429730151L2278.2297956590105 606.5685567183443Q2272.102857806297 606.348615359529 2252.8736990070106 605.8773124477818Q2233.6445402077247 605.437429730151 2221.6734462493455 605.437429730151L2221.6734462493455 605.437429730151Q2212.404488984984 605.437429730151 2204.4866000676307 606.2229345830631Q2196.5687111502775 607.0084394359751 2194.306457173891 607.259800988907L2194.306457173891 607.259800988907ZM2394.515934084104 608.1395664241684Q2389.520123219584 608.1395664241684 2384.335791190365 603.7407392478613Q2379.120038967029 599.3419120715539 2374.8154723730713 591.6439645130163L2374.8154723730713 591.6439645130163L2355.8062549326005 558.3699789436633L2341.1016040860873 558.3699789436633L2340.6617213684567 582.5949486074699Q2340.6617213684567 589.1617691778142 2341.572906997835 591.9895866482975Q2342.4840926272127 594.8174041187808 2345.0605485447645 595.6971695540421Q2347.6684246564323 596.6083551834201 2354.015303867961 596.8282965422354L2354.015303867961 596.8282965422354L2354.4551865855915 597.5195408127979L2352.6642355209524 606.1286740007138Q2349.930678632819 605.8773124477818 2342.798294568378 605.7830518654323Q2335.697330698053 605.6573710889666 2328.439265857146 605.6573710889666L2328.439265857146 605.6573710889666Q2321.432562569171 605.6573710889666 2316.2168103458353 605.8773124477818Q2311.032478316616 606.1286740007138 2309.21010705786 606.348615359529L2309.21010705786 606.348615359529L2310.8125369578006 597.0796580951674Q2319.1703085927847 595.9485311069741 2321.872445286802 593.2149742188403Q2324.6060021749354 590.512837524823 2324.6060021749354 583.0348313251006L2324.6060021749354 583.0348313251006L2324.825943533751 510.8626454395449Q2324.825943533751 505.4583720515103 2323.4748751867423 503.5103200162885Q2322.123806839734 501.5936881751832 2318.2591229634063 501.5936881751832L2318.2591229634063 501.5936881751832L2311.9436639459936 501.81362953399855L2311.252419675431 500.9338640987371L2312.6034880224397 492.3247309108215Q2314.8657419988267 492.3247309108215 2321.212621210356 492.54467226963686Q2327.528080227768 492.7646136284522 2333.874959439297 492.7646136284522L2333.874959439297 492.7646136284522Q2340.4417800096417 492.7646136284522 2347.8883660152474 492.4504116872874Q2355.36637221497 492.1047895520061 2358.0685089089875 492.1047895520061L2358.0685089089875 492.1047895520061Q2376.417902273012 492.1047895520061 2386.817986525567 499.6770563340779Q2397.2180707781217 507.2493231161497 2397.2180707781217 520.6029056156539L2397.2180707781217 520.6029056156539Q2397.2180707781217 531.0029898682089 2390.2113674901466 539.8320644149399Q2383.2046642021714 548.6611389616709 2370.5109057791133 554.3167739026374L2370.5109057791133 554.3167739026374L2389.740064578399 583.2547726839159Q2395.1757581605502 591.4240231542008 2400.171569025071 594.8174041187808Q2405.135959695475 598.2107850833606 2412.14266298345 598.2107850833606L2412.14266298345 598.2107850833606L2413.053848612828 599.3419120715539L2411.9227216246345 606.348615359529L2394.515934084104 608.1395664241684ZM2359.890880167743 548.4411976028555Q2364.1954467617006 546.6188263440997 2367.463146949815 544.9221358618097Q2370.762267332045 543.2254453795198 2374.8154723730713 537.7897517973687Q2378.900097608214 532.3540582152175 2378.900097608214 523.7763452214184L2378.900097608214 523.7763452214184Q2378.900097608214 501.81362953399855 2346.537297668239 501.81362953399855L2346.537297668239 501.81362953399855Q2344.7463466035997 501.81362953399855 2344.0551023330368 502.63055458102707Q2343.3638580624743 503.41605943393904 2343.3638580624743 505.89825476914103L2343.3638580624743 505.89825476914103Q2341.572906997835 533.4851852034109 2341.572906997835 546.6188263440997L2341.572906997835 546.6188263440997L2359.890880167743 548.4411976028555Z " fill="#ffff" transform="matrix(0.36261102601922973,0,0,0.3626110260192298,0,106.5067997341539)"/></g></svg>