<svg xmlns="http://www.w3.org/2000/svg" xmlns:svgjs="http://svgjs.com/svgjs" xmlns:xlink="http://www.w3.org/1999/xlink" width="288" height="288"><svg xmlns="http://www.w3.org/2000/svg" width="288" height="288" version="1.0" viewBox="0 0 1000 1000"><g fill="#6d28d9" class="color000 svgShape" transform="matrix(.1 0 0 -.1 0 1000)"><path d="M0 5000 l0 -5000 5000 0 5000 0 0 5000 0 5000 -5000 0 -5000 0 0-5000z m8750 0 l0 -3000 -3750 0 -3750 0 0 3000 0 3000 3750 0 3750 0 0 -3000z" class="color000 svgShape"/><path d="M5930 6683c-225-10-434-62-635-158-456-219-789-640-919-1163-66-266-72-590-15-877 91-454 360-833 724-1018 228-116 480-164 765-145 606 39 1119 389 1398 953 123 248 175 457 188 750 17 358-60 706-213 967-274 465-739 714-1293 691zm77-317c364-65 653-301 820-671 61-134 67-150 92-245 67-255 87-527 56-780-23-193-57-313-135-477-67-141-136-237-247-343-198-190-409-272-698-273-191-1-315 27-465 104-325 168-554 518-641 979-26 138-37 477-20 616 26 209 64 342 146 510 153 316 413 523 730 582 78 15 271 13 362-2zM3665 6654c-228-27-396-33-695-24-162 5-307 10-321 10-25 0-26-2-42-112-10-62-17-116-17-121 0-4 66-6 148-5 170 3 202-7 237-77 20-39 20-63 23-1180 2-744-1-1175-8-1240-21-206-97-286-320-340-41-10-76-19-77-19-5-4-33-220-28-224 2-2 53 3 112 12 229 34 330 39 737 34l403-4 22 114c12 63 19 117 16 121-4 3-88 6-188 6-165 0-185 2-217 20-41 24-66 70-81 151-13 66-6 792 11 1259 35 961 49 1178 75 1242 34 82 99 120 253 150l89 18 9 112c9 110 8 113-11 112-11-1-69-7-130-15z" class="color000 svgShape"/></g></svg></svg>